<svg width="24" height="24" viewBox="0 0 24 24" fill="none" xmlns="http://www.w3.org/2000/svg">
<path fill-rule="evenodd" clip-rule="evenodd" d="M19.6342 4.53563C17.6657 2.56417 15.0469 1.47832 12.2572 1.47705C6.50874 1.47705 1.83049 6.15488 1.82795 11.905C1.82567 13.7351 2.30592 15.5335 3.22029 17.1188C3.22029 17.1188 3.82809 18.2452 4.91405 19.3726C6 20.5 7.26947 21.0727 7.26947 21.0727C8.79847 21.9056 10.5118 22.3421 12.2529 22.3423H12.2572C18.0048 22.3423 22.6839 17.6636 22.686 11.9135C22.6868 9.1271 21.6031 6.50667 19.6342 4.53563ZM12.2572 20.5808H12.2534C10.7011 20.5809 9.17738 20.1636 7.84181 19.3726L7.52516 19.1846L6.00002 18L5.12063 16.847L4.91405 16.5189C4.04594 15.1371 3.58656 13.5378 3.58901 11.9059C3.59071 7.12643 7.47944 3.23854 12.2606 3.23854C13.3994 3.23587 14.5274 3.45918 15.5794 3.89555C16.6313 4.33191 17.5862 4.97265 18.3887 5.78065C19.1958 6.58437 19.8355 7.54014 20.2709 8.59267C20.7062 9.64521 20.9285 10.7736 20.9249 11.9126C20.9232 16.6921 17.0345 20.5808 12.2572 20.5808Z" fill="black"/>
<path fill-rule="evenodd" clip-rule="evenodd" d="M17.0116 14.0889C16.7513 13.9585 15.4698 13.3282 15.2311 13.241C14.9923 13.1542 14.8183 13.1106 14.6448 13.3714C14.4712 13.6326 13.9717 14.2193 13.8197 14.3933C13.6677 14.5669 13.5157 14.5889 13.255 14.4585C12.9946 14.3281 12.1547 14.0529 11.1595 13.1652C10.3848 12.4743 9.86195 11.6209 9.70997 11.3601C9.55757 11.0989 9.69388 10.9579 9.82427 10.828C9.94153 10.7111 10.0846 10.5236 10.215 10.3716C10.3454 10.2192 10.3886 10.1109 10.4758 9.93687C10.5626 9.7633 10.519 9.6109 10.4538 9.48052C10.389 9.35013 9.86787 8.06743 9.65071 7.54589C9.43904 7.03789 9.22399 7.10647 9.06439 7.09842C8.91241 7.0908 8.73842 7.08911 8.56486 7.08911C8.39129 7.08911 8.10893 7.1543 7.86974 7.41508C7.63098 7.67585 6.95789 8.30662 6.95789 9.58889C6.95789 10.8716 7.89176 12.1107 8.02172 12.2847C8.15211 12.4582 9.85941 15.0905 12.4735 16.2191C12.9586 16.4282 13.4545 16.6115 13.959 16.7682C14.583 16.9667 15.1511 16.9384 15.6002 16.8715C16.101 16.7966 17.142 16.2407 17.3592 15.6324C17.5763 15.0236 17.5763 14.5021 17.5111 14.3933C17.446 14.2845 17.2724 14.2197 17.0116 14.0889Z" fill="black"/>
</svg>
