<svg width="512" height="512" viewBox="0 0 512 512" fill="none" xmlns="http://www.w3.org/2000/svg">
<path d="M129.368 335.344H126.344V328.912H129.896V334.864H132.824V337.792H141.224V334.864H144.2V326.464H141.224V323.488H132.344V320.512H129.368V317.536H126.344V308.128H129.368V305.152H132.344V302.224H141.752V305.152H144.68V308.128H147.656V314.608H144.2V308.656H141.224V305.68H132.824V308.656H129.896V317.056H132.824V319.984H141.752V322.96H144.68V325.936H147.656V335.344H144.68V338.32H141.752V341.344H132.344V338.32H129.368V335.344ZM157.832 317.536H151.832V314.08H157.832V305.152H161.288V314.08H170.168V317.536H161.288V337.792H170.168V341.344H160.76V338.32H157.832V317.536ZM183.272 340.768V335.344H180.344V329.44H177.368V320.512H174.344V314.08H177.896V319.984H180.824V328.912H183.8V334.864H186.248V328.912H189.224V319.984H192.2V314.08H195.656V320.512H192.68V329.44H189.752V335.344H186.776V341.344H183.8V344.32H174.344V340.768H183.272ZM207.224 305.152H210.728V341.344H207.224V305.152ZM231.224 305.152H234.728V311.632H231.224V305.152ZM231.224 314.08H234.728V341.344H231.224V314.08ZM246.344 331.888H249.896V337.792H264.2V329.44H249.368V326.464H246.344V317.056H249.368V314.08H264.68V317.056H267.656V323.488H264.2V317.536H249.896V325.936H264.68V328.912H267.656V338.32H264.68V341.344H249.368V338.32H246.344V331.888ZM270.344 305.152H273.896V317.056H276.344V314.08H285.752V317.056H288.68V319.984H291.656V341.344H288.2V320.512H285.224V317.536H276.824V320.512H273.896V341.344H270.344V305.152ZM325.832 317.536H319.832V314.08H325.832V305.152H328.76V302.224H338.168V305.68H329.288V314.08H338.168V317.536H329.288V341.344H325.832V317.536ZM345.368 335.344H342.344V319.984H345.368V317.056H348.344V314.08H357.752V317.056H360.68V319.984H363.656V335.344H360.68V338.32H357.752V341.344H348.344V338.32H345.368V335.344ZM348.824 334.864V337.792H357.224V334.864H360.2V320.512H357.224V317.536H348.824V320.512H345.896V334.864H348.824ZM366.344 314.08H369.896V317.056H372.344V314.08H381.752V317.056H384.68V319.984H387.656V341.344H384.2V320.512H381.224V317.536H372.824V320.512H369.896V341.344H366.344V314.08ZM397.832 317.536H391.832V314.08H397.832V305.152H401.288V314.08H410.168V317.536H401.288V337.792H410.168V341.344H400.76V338.32H397.832V317.536Z" fill="white"/>
<g filter="url(#filter0_d_32_2)">
<path d="M123.6 211.56L122.64 216.96L71.76 211.56H123.6ZM126.6 200.04L125.04 205.44L74.88 200.04H126.6ZM121.68 228.48L70.8 223.08H121.92C121.76 225.48 121.68 227.28 121.68 228.48ZM121.92 234.6C122.24 237 122.52 238.8 122.76 240L71.88 234.6H121.92ZM80.16 188.52H131.88C131 190.04 130.08 191.8 129.12 193.8L80.16 188.52ZM124.68 246.24C125.4 248.16 126.36 249.96 127.56 251.64L76.8 246.24H124.68ZM89.28 177H141C138.92 178.92 137.36 180.6 136.32 182.04L89.28 177ZM154.44 192.72C153 194.56 151.68 197.32 150.48 201C149.28 204.68 148.16 209.36 147.12 215.04C146.16 220.64 145.68 225.16 145.68 228.6C145.68 232.04 146.04 234.76 146.76 236.76C147.56 238.76 148.28 240.04 148.92 240.6C149.64 241.08 150.64 241.64 151.92 242.28L147.72 259.92C132.76 257.84 125.28 247.76 125.28 229.68C125.28 225.2 125.76 220.16 126.72 214.56C131.76 186.88 144.08 171.76 163.68 169.2L161.76 186.84C160.32 187.4 159.08 188.08 158.04 188.88C157.08 189.6 155.88 190.88 154.44 192.72ZM176.114 243.96L171.314 227.88L205.754 214.92L205.874 214.08L177.194 201.24L187.754 185.16L224.234 203.64L220.394 225.48L176.114 243.96ZM222.507 268.2L185.667 261.72H223.587L222.507 268.2ZM237.387 250.2H279.627L277.347 263.16C276.947 265.32 276.067 266.68 274.707 267.24C273.427 267.88 271.427 268.2 268.707 268.2H226.467L228.747 255.24C229.147 253.08 230.027 251.72 231.387 251.16C232.667 250.52 234.667 250.2 237.387 250.2ZM343.257 185.16L348.057 201.24L313.617 214.2L313.497 215.04L342.177 227.88L331.617 243.96L295.137 225.48L298.977 203.64L343.257 185.16ZM387.85 216.96L336.97 211.56H388.81L387.85 216.96ZM372.85 251.64L321.97 246.24H373.45L372.85 251.64ZM386.53 223.08C385.65 226.04 385.09 227.84 384.85 228.48L334.69 223.08H386.53ZM334.45 177H386.17L384.85 182.4L334.45 177ZM389.65 200.04C389.73 200.36 389.77 200.88 389.77 201.6C389.77 202.24 389.69 203.52 389.53 205.44L338.77 200.04H389.65ZM381.85 234.6C380.41 236.84 378.77 238.52 376.93 239.64L330.13 234.6H381.85ZM387.85 193.92L336.97 188.52H383.29L382.93 190.08C384.77 190.64 386.41 191.92 387.85 193.92ZM413.89 200.52C413.89 204.6 413.37 209.68 412.33 215.76C407.53 243.36 395.25 258.48 375.49 261.12L377.41 243.48C378.61 243 379.53 242.56 380.17 242.16C380.89 241.76 381.85 240.96 383.05 239.76C384.33 238.48 385.41 236.96 386.29 235.2C388.45 230.72 390.17 224.92 391.45 217.8C392.73 210.68 393.37 205.44 393.37 202.08C393.37 198.64 393.01 195.92 392.29 193.92C391.57 191.92 390.81 190.6 390.01 189.96C389.29 189.24 388.33 188.6 387.13 188.04L391.45 170.4C406.41 172.48 413.89 182.52 413.89 200.52Z" fill="white"/>
</g>
<defs>
<filter id="filter0_d_32_2" x="66.8" y="169.2" width="351.09" height="107" filterUnits="userSpaceOnUse" color-interpolation-filters="sRGB">
<feFlood flood-opacity="0" result="BackgroundImageFix"/>
<feColorMatrix in="SourceAlpha" type="matrix" values="0 0 0 0 0 0 0 0 0 0 0 0 0 0 0 0 0 0 127 0" result="hardAlpha"/>
<feOffset dy="4"/>
<feGaussianBlur stdDeviation="2"/>
<feComposite in2="hardAlpha" operator="out"/>
<feColorMatrix type="matrix" values="0 0 0 0 0 0 0 0 0 0 0 0 0 0 0 0 0 0 0.25 0"/>
<feBlend mode="normal" in2="BackgroundImageFix" result="effect1_dropShadow_32_2"/>
<feBlend mode="normal" in="SourceGraphic" in2="effect1_dropShadow_32_2" result="shape"/>
</filter>
</defs>
</svg>
